<svg width="32" height="32" viewBox="0 0 32 32" fill="none" xmlns="http://www.w3.org/2000/svg">
  <style>
    /* 默认显示浅色模式，隐藏深色模式图形 */
    .favicon-dark { display: none; }
    .favicon-light { display: block; }

    /* 当检测到系统为深色模式时，切换显隐状态 */
    @media (prefers-color-scheme: dark) {
      .favicon-light { display: none; }
      .favicon-dark { display: block; }
    }
  </style>

  <g class="favicon-light">
    <circle cx="16" cy="16" r="13.5" stroke="#F0F0F0" stroke-width="4" />
    <path d="M16 2.5C23.4558 2.5 29.5 8.54416 29.5 16C29.5 23.4558 23.4558 29.5 16 29.5C8.54416 29.5 2.5 23.4558 2.5 16C2.5 12.134 4.12683 8.64819 6.74264 6.2" 
          stroke="#000000" stroke-width="4" stroke-linecap="round" />
  </g>

  <g class="favicon-dark">
    <circle cx="16" cy="16" r="13.5" stroke="#333333" stroke-width="4" />
    <path d="M16 2.5C23.4558 2.5 29.5 8.54416 29.5 16C29.5 23.4558 23.4558 29.5 16 29.5C8.54416 29.5 2.5 23.4558 2.5 16C2.5 12.134 4.12683 8.64819 6.74264 6.2" 
          stroke="#FFFFFF" stroke-width="4" stroke-linecap="round" />
  </g>
</svg>
